<?xml version="1.0" encoding="UTF-8"?><svg id="svg3804" xmlns="http://www.w3.org/2000/svg" viewBox="0 0 498.25 128.17"><defs><style>.cls-1{fill:#234197;}.cls-2{font-family:Lato-Regular, Lato;font-size:11.38px;}.cls-2,.cls-3{isolation:isolate;}.cls-2,.cls-4{fill:#fff;}</style></defs><g id="Layer_1"><g id="_982452816"><path id="path3796" class="cls-1" d="M64.44,50.72c5.67,15.14,14.54,31.07,4.68,33.99-14.03,4.17-17.57-24.69-32.06-20.35-15.93,4.76,6.07,35.63-6.15,39.2s-15.79-18.77-27.47-11.96c-11.65,6.8,8.16,42.32,32.12,35.77,17.94-4.93,13.83-22.08,13.72-29.2-.06-3.26,3.06-4.08,4.93-2.1,13.04,13.75,19.87,17.8,29.14,15,17.89-5.41,19.53-45.01,7-68.94-9.21-17.6-32.88-10.12-25.88,8.62l-.03-.03ZM102.5,35.02c10.03-1.56,16.95-10.63,15.45-20.24S107.1-1.35,97.06.24c-10.03,1.56-16.95,10.63-15.45,20.24s10.86,16.13,20.89,14.54ZM117.5,54.49c5.24-2.75,7.54-8.25,5.13-12.3s-8.62-5.13-13.86-2.41c-5.24,2.75-7.54,8.25-5.13,12.3s8.62,5.13,13.86,2.41ZM117.61,75.75c5.41-.54,9.24-4.48,8.59-8.76-.68-4.28-5.61-7.31-11-6.77-5.41.54-9.24,4.48-8.59,8.76.68,4.28,5.61,7.31,11,6.77ZM110.92,94.77c4.37,1.84,9.38.4,11.17-3.23s-.28-8.08-4.68-9.92c-4.37-1.84-9.38-.4-11.17,3.23s.28,8.08,4.68,9.92ZM103.5,111.61c4.31,1.3,8.62-.43,9.67-3.86,1.02-3.43-1.62-7.26-5.92-8.56s-8.62.43-9.67,3.86c-1.02,3.43,1.62,7.26,5.92,8.56Z"/><path id="path3798" class="cls-4" d="M155.8,57.7l7.29,24.97,6.63-23.22c.71-2.44,1.22-4.08,1.59-4.99.34-.88.99-1.73,1.93-2.55.96-.79,2.24-1.19,3.88-1.19s2.98.4,3.91,1.19c.94.82,1.62,1.7,1.98,2.64s.91,2.58,1.59,4.9l6.63,23.22,7.37-24.97c.51-1.81.91-3.09,1.19-3.91.31-.79.82-1.5,1.53-2.13s1.73-.94,3.06-.94,2.49.45,3.49,1.39,1.47,2.01,1.47,3.26c0,1.13-.43,2.89-1.28,5.19l-9.13,26.79c-.79,2.27-1.42,3.91-1.84,4.93s-1.13,1.9-2.07,2.69-2.24,1.19-3.88,1.19-3.03-.43-4-1.28-1.67-1.9-2.13-3.12c-.48-1.22-.96-2.83-1.53-4.79l-6.38-21.8-6.18,21.8c-.82,3.03-1.7,5.3-2.66,6.86s-2.64,2.32-5.02,2.32c-1.22,0-2.27-.23-3.12-.71-.88-.48-1.59-1.16-2.15-2.04s-1.08-1.93-1.53-3.15c-.43-1.22-.77-2.18-1.02-2.89l-9.04-26.79c-.91-2.52-1.36-4.25-1.36-5.19,0-1.19.48-2.27,1.45-3.23s2.13-1.45,3.51-1.45c1.84,0,3.09.54,3.77,1.59.65,1.05,1.36,2.83,2.1,5.39h-.06ZM240.41,89.87c-2.72,2.1-5.33,3.69-7.85,4.73s-5.36,1.59-8.5,1.59c-2.89,0-5.39-.57-7.57-1.7-2.15-1.13-3.86-2.66-5.02-4.59-1.16-1.96-1.76-4.03-1.76-6.29,0-3.06.96-5.67,2.92-7.82s4.59-3.6,7.99-4.34c.71-.17,2.47-.54,5.27-1.11,2.81-.6,5.22-1.11,7.23-1.59s4.17-1.05,6.52-1.76c-.14-2.95-.74-5.1-1.79-6.49s-3.23-2.07-6.55-2.07c-2.83,0-4.99.4-6.41,1.19-1.45.79-2.66,1.98-3.69,3.57s-1.76,2.64-2.15,3.12c-.43.51-1.33.77-2.72.77-1.25,0-2.35-.4-3.26-1.22-.94-.79-1.36-1.84-1.36-3.09,0-1.96.68-3.88,2.07-5.73,1.39-1.87,3.57-3.37,6.52-4.59,2.95-1.19,6.6-1.81,11.03-1.81,4.93,0,8.79.6,11.59,1.76s4.79,3,5.95,5.5,1.76,5.84,1.76,10.01c0,2.61,0,4.85-.03,6.66,0,1.84-.03,3.88-.06,6.09,0,2.1.34,4.28,1.05,6.58.71,2.27,1.02,3.74,1.02,4.39,0,1.13-.54,2.18-1.62,3.12s-2.3,1.42-3.66,1.42c-1.13,0-2.27-.54-3.4-1.62s-2.3-2.64-3.57-4.68h.03ZM239.67,73.71c-1.64.6-4.03,1.22-7.14,1.9s-5.3,1.16-6.49,1.47-2.35.94-3.43,1.84-1.64,2.18-1.64,3.83.65,3.15,1.93,4.34,2.98,1.79,5.05,1.79c2.21,0,4.25-.48,6.12-1.45s3.23-2.21,4.11-3.74c1.02-1.7,1.5-4.48,1.5-8.36v-1.62ZM258.21,89.39v-48.47c0-2.24.51-3.94,1.5-5.07s2.32-1.73,4.03-1.73,3.03.57,4.08,1.7,1.56,2.83,1.56,5.07v48.47c0,2.27-.54,3.97-1.59,5.07-1.05,1.13-2.41,1.7-4.05,1.7s-2.98-.6-4-1.76-1.53-2.86-1.53-5.02v.03ZM305.04,91.06l-9.86-16.21-6.07,5.73v8.9c0,2.15-.57,3.83-1.7,4.99s-2.44,1.73-3.91,1.73c-1.73,0-3.06-.57-4.05-1.73-.99-1.13-1.47-2.83-1.47-5.07v-47.65c0-2.49.48-4.37,1.45-5.67s2.32-1.96,4.08-1.96,3.06.6,4.08,1.76,1.5,2.92,1.5,5.19v27.1l12.56-13.18c1.56-1.64,2.75-2.78,3.57-3.37s1.81-.91,3-.91c1.39,0,2.55.45,3.49,1.33.94.91,1.39,1.98,1.39,3.34,0,1.64-1.53,3.83-4.54,6.55l-5.95,5.44,11.45,18.03c.85,1.33,1.45,2.35,1.81,3.06s.57,1.36.57,1.98c0,1.79-.48,3.17-1.45,4.2s-2.24,1.53-3.83,1.53c-1.36,0-2.41-.37-3.15-1.11s-1.73-2.07-2.98-4.03v.03Z"/><path id="path3800" class="cls-4" d="M331.8,40.49v17.06c2.1-2.18,4.25-3.86,6.43-5.02s4.9-1.76,8.11-1.76c3.71,0,6.97.88,9.78,2.64s4.99,4.31,6.52,7.65c1.56,3.34,2.32,7.31,2.32,11.91,0,3.37-.43,6.49-1.28,9.3-.88,2.83-2.1,5.27-3.74,7.34s-3.63,3.69-5.98,4.82c-2.32,1.13-4.9,1.7-7.71,1.7-1.73,0-3.34-.2-4.88-.62-1.5-.4-2.81-.96-3.88-1.62-1.05-.65-1.98-1.36-2.72-2.07s-1.73-1.76-2.98-3.17v1.11c0,2.1-.51,3.69-1.5,4.76-1.02,1.08-2.3,1.62-3.86,1.62s-2.86-.54-3.8-1.62-1.42-2.66-1.42-4.76v-48.81c0-2.27.45-4,1.36-5.13.94-1.16,2.18-1.73,3.83-1.73,1.73,0,3.03.57,3.97,1.67s1.39,2.69,1.39,4.73h.03ZM332.34,73.68c0,4.45,1.02,7.88,3.03,10.26,2.04,2.38,4.71,3.57,8.02,3.57,2.83,0,5.24-1.22,7.29-3.66s3.03-5.95,3.03-10.52c0-2.95-.43-5.47-1.28-7.6s-2.04-3.8-3.6-4.96-3.37-1.73-5.44-1.73-4.03.57-5.7,1.73-2.98,2.86-3.94,5.05-1.45,4.82-1.45,7.85h.03ZM398.41,89.84c-2.72,2.1-5.33,3.69-7.85,4.73s-5.36,1.59-8.5,1.59c-2.89,0-5.39-.57-7.57-1.7-2.15-1.13-3.86-2.66-5.02-4.59-1.16-1.96-1.76-4.03-1.76-6.29,0-3.06.96-5.67,2.92-7.82s4.59-3.6,7.99-4.34c.71-.17,2.47-.54,5.27-1.11,2.81-.6,5.22-1.11,7.23-1.59s4.17-1.05,6.52-1.76c-.14-2.95-.74-5.1-1.79-6.49s-3.23-2.07-6.55-2.07c-2.83,0-4.99.4-6.41,1.19-1.45.79-2.66,1.98-3.69,3.57s-1.76,2.64-2.15,3.12c-.43.51-1.33.77-2.72.77-1.25,0-2.35-.4-3.26-1.22-.94-.79-1.36-1.84-1.36-3.09,0-1.96.68-3.88,2.07-5.73,1.39-1.87,3.57-3.37,6.52-4.59,2.95-1.19,6.6-1.81,11.03-1.81,4.93,0,8.79.6,11.59,1.76s4.79,3,5.95,5.5,1.76,5.84,1.76,10.01c0,2.61,0,4.85-.03,6.66,0,1.84-.03,3.88-.06,6.09,0,2.1.34,4.28,1.05,6.58.71,2.27,1.02,3.74,1.02,4.39,0,1.13-.54,2.18-1.62,3.12s-2.3,1.42-3.66,1.42c-1.13,0-2.27-.54-3.4-1.62s-2.3-2.64-3.57-4.68h.03ZM397.68,73.68c-1.64.6-4.03,1.22-7.14,1.9s-5.3,1.16-6.49,1.47-2.35.94-3.43,1.84-1.64,2.18-1.64,3.83.65,3.15,1.93,4.34,2.98,1.79,5.02,1.79c2.21,0,4.25-.48,6.12-1.45s3.23-2.21,4.11-3.74c1.02-1.7,1.5-4.48,1.5-8.36v-1.59l.03-.03ZM452.21,81.54c0,3.09-.77,5.73-2.24,7.94-1.5,2.18-3.71,3.86-6.66,4.99s-6.52,1.7-10.71,1.7-7.46-.62-10.32-1.84-4.99-2.78-6.35-4.62-2.04-3.69-2.04-5.56c0-1.22.43-2.27,1.3-3.15s1.98-1.3,3.32-1.3c1.16,0,2.07.28,2.69.88.62.57,1.22,1.36,1.81,2.41,1.13,2.01,2.52,3.49,4.11,4.48,1.62.99,3.8,1.47,6.55,1.47,2.24,0,4.08-.51,5.5-1.5,1.45-.99,2.15-2.13,2.15-3.4,0-1.98-.74-3.4-2.24-4.31-1.47-.91-3.94-1.76-7.34-2.58-3.86-.96-6.97-1.96-9.38-3s-4.34-2.44-5.81-4.14c-1.45-1.73-2.15-3.86-2.15-6.35,0-2.24.68-4.37,2.01-6.35,1.33-2.01,3.29-3.6,5.92-4.79,2.61-1.19,5.75-1.79,9.44-1.79,2.89,0,5.5.28,7.8.91,2.3.6,4.22,1.42,5.78,2.41,1.56,1.02,2.72,2.13,3.51,3.37.82,1.22,1.22,2.44,1.22,3.6,0,1.28-.43,2.32-1.28,3.15-.88.82-2.07,1.22-3.69,1.22-1.13,0-2.1-.31-2.92-.96s-1.73-1.64-2.78-2.95c-.85-1.08-1.84-1.98-3-2.64-1.13-.65-2.69-.96-4.68-.96s-3.71.43-5.02,1.28c-1.33.88-2.01,1.93-2.01,3.2,0,1.16.48,2.13,1.47,2.89.99.74,2.3,1.36,3.97,1.87,1.67.48,3.97,1.08,6.89,1.81,3.46.85,6.29,1.87,8.5,3.03,2.18,1.16,3.86,2.55,4.99,4.14s1.7,3.4,1.7,5.47l-.03-.03ZM489.12,76.18h-21.86c.03,2.55.54,4.79,1.53,6.72.99,1.96,2.32,3.4,3.97,4.37,1.64.99,3.49,1.47,5.47,1.47,1.33,0,2.55-.14,3.66-.48,1.11-.31,2.18-.79,3.2-1.47,1.05-.68,1.98-1.39,2.86-2.15s2.01-1.81,3.4-3.12c.57-.48,1.39-.74,2.44-.74,1.13,0,2.07.31,2.81.96.71.62,1.05,1.5,1.05,2.66,0,1.02-.4,2.18-1.19,3.54-.79,1.33-1.98,2.64-3.6,3.88-1.59,1.25-3.6,2.27-6.01,3.09s-5.19,1.22-8.33,1.22c-7.17,0-12.78-2.04-16.75-6.12-4-4.08-5.98-9.67-5.98-16.67,0-3.29.48-6.38,1.47-9.18.99-2.83,2.41-5.24,4.28-7.26,1.9-2.01,4.2-3.57,6.97-4.65,2.75-1.08,5.81-1.62,9.16-1.62,4.37,0,8.11.94,11.23,2.78s5.47,4.22,7.03,7.14,2.32,5.9,2.32,8.93c0,2.81-.82,4.62-2.41,5.47-1.62.82-3.88,1.25-6.8,1.25l.09-.03ZM467.27,69.83h20.27c-.26-3.83-1.3-6.69-3.09-8.56-1.79-1.9-4.14-2.86-7.06-2.86s-5.07.96-6.86,2.89-2.89,4.79-3.26,8.53Z"/></g></g><g id="g3895"><g id="text3883"><path id="path3939" class="cls-4" d="M254.65,106.75l-1.16,9.67h-2.2l.13-1.05c-.94.85-1.92,1.27-2.93,1.27-1.24,0-2.26-.43-3.04-1.3-.78-.87-1.18-2-1.18-3.38,0-1.59.45-2.9,1.35-3.92.91-1.02,2.08-1.53,3.5-1.53.67,0,1.24.11,1.72.34.48.23.97.62,1.47,1.17l.15-1.27h2.2ZM251.96,111.31c0-.86-.24-1.55-.72-2.08-.48-.54-1.1-.81-1.85-.81-.82,0-1.52.33-2.07,1-.56.67-.84,1.49-.84,2.46,0,.85.23,1.54.7,2.08.47.54,1.06.81,1.8.81.81,0,1.51-.34,2.1-1.02.59-.69.89-1.51.89-2.44Z"/><path id="path3941" class="cls-4" d="M422.22,107.69l-.28,2.31c-.45-.6-.88-1.02-1.3-1.28-.41-.25-.88-.38-1.44-.38-.84,0-1.53.32-2.06.95-.54.64-.81,1.45-.81,2.45,0,.94.25,1.69.76,2.25.51.57,1.17.85,1.98.85s1.58-.35,2.41-1.04l-.29,2.39c-.85.36-1.66.53-2.43.53-1.38,0-2.5-.46-3.36-1.39-.86-.92-1.29-2.12-1.29-3.59s.46-2.78,1.39-3.79c.93-1.02,2.09-1.53,3.47-1.53,1.13,0,2.21.42,3.24,1.25h0Z"/><path id="path3943" class="cls-4" d="M433.87,111.5c0,1.48-.5,2.72-1.5,3.73-.99,1.01-2.21,1.51-3.67,1.51s-2.77-.48-3.73-1.43c-.97-.96-1.46-2.17-1.46-3.63s.5-2.74,1.51-3.74c1.01-1,2.27-1.5,3.79-1.5s2.7.47,3.64,1.42c.94.93,1.42,2.15,1.42,3.64h0ZM431.65,111.38c0-.93-.26-1.67-.79-2.21-.53-.56-1.21-.84-2.06-.84s-1.62.31-2.19.93c-.58.63-.87,1.42-.87,2.37s.27,1.73.82,2.31c.55.6,1.25.89,2.11.89s1.58-.33,2.13-.98c.57-.64.85-1.47.85-2.48h0Z"/><path id="path3945" class="cls-4" d="M439.22,106.75l-.1.9c.74-.77,1.61-1.15,2.58-1.15.59,0,1.05.11,1.37.34.32.21.6.61.86,1.2.93-1.02,1.93-1.53,3.01-1.53,1.86,0,2.79.88,2.79,2.64,0,.18-.02.43-.05.75-.03.32-.07.72-.12,1.19l-.64,5.33h-2.2l.68-5.6c.06-.52.09-.9.09-1.15,0-.84-.41-1.26-1.24-1.26-.33,0-.61.05-.85.15-.24.1-.45.25-.62.46-.17.21-.31.48-.42.81-.11.33-.19.72-.25,1.18l-.64,5.4h-2.2l.69-5.74c.06-.52.09-.88.09-1.07,0-.8-.42-1.2-1.27-1.2-1.22,0-1.94.87-2.14,2.62l-.65,5.39h-2.2l1.16-9.67h2.27Z"/><path id="path3947" class="cls-4" d="M455.41,106.75l-.12,1.02c.95-.83,1.95-1.25,3-1.25,1.25,0,2.29.45,3.12,1.34.83.9,1.25,2.03,1.25,3.4,0,1.52-.48,2.8-1.43,3.84-.94,1.03-2.12,1.55-3.52,1.55-.72,0-1.31-.12-1.77-.35-.48-.23-.99-.65-1.53-1.26l-.83,6.92h-2.2l1.81-15.2h2.2ZM460.46,111.35c0-.86-.24-1.56-.72-2.1-.48-.55-1.09-.83-1.83-.83-.89,0-1.64.34-2.23,1.01-.6.67-.9,1.5-.9,2.47,0,.86.25,1.54.76,2.06.51.53,1.16.8,1.95.8.84,0,1.54-.33,2.11-.99.57-.67.86-1.48.86-2.42h0Z"/><path id="path3949" class="cls-4" d="M474.96,106.75l-1.16,9.67h-2.2l.13-1.05c-.94.85-1.92,1.27-2.93,1.27-1.24,0-2.26-.43-3.04-1.3-.78-.87-1.18-2-1.18-3.38,0-1.59.45-2.9,1.35-3.92.91-1.02,2.08-1.53,3.5-1.53.67,0,1.24.11,1.72.34.48.23.97.62,1.47,1.17l.15-1.27h2.2ZM472.27,111.31c0-.86-.24-1.55-.72-2.08-.48-.54-1.1-.81-1.85-.81-.82,0-1.52.33-2.07,1-.56.67-.84,1.49-.84,2.46,0,.85.23,1.54.7,2.08.47.54,1.06.81,1.8.81.81,0,1.51-.34,2.1-1.02.59-.69.89-1.51.89-2.44Z"/><path id="path3951" class="cls-4" d="M480.22,106.75l-.1.89c.87-.75,1.75-1.13,2.64-1.13s1.65.26,2.2.79c.54.53.81,1.25.81,2.16,0,.49-.04,1.08-.12,1.77l-.63,5.19h-2.19l.68-5.69c.03-.21.04-.4.05-.56.01-.16.02-.31.02-.44,0-.88-.46-1.31-1.38-1.31-.57,0-1.05.18-1.46.53-.33.28-.58.62-.74,1.03-.09.21-.16.46-.22.76-.06.29-.11.64-.16,1.03l-.56,4.66h-2.2l1.16-9.67h2.19Z"/><path id="path3953" class="cls-4" d="M497.96,106.75l-8.51,15.2h-2.51l3.78-6.73-3.36-8.47h2.35l2.32,6.18,3.4-6.18h2.52Z"/></g><g id="text3879"><path id="path3916" class="cls-4" d="M271.83,106.78c-.3-.31-.63-.54-.98-.68-.34-.16-.7-.23-1.06-.23-.46,0-.86.11-1.2.32s-.56.5-.65.85c-.06.24-.04.44.06.59.1.16.25.29.45.41.21.11.45.2.72.29.28.08.55.17.81.27,1.05.38,1.76.9,2.12,1.55.38.64.43,1.47.17,2.5-.18.7-.46,1.33-.84,1.89-.37.56-.84,1.05-1.4,1.46-.55.4-1.18.7-1.89.92-.71.23-1.47.34-2.3.34-1.72,0-3.18-.51-4.38-1.53l2.24-2.84c.41.47.84.82,1.3,1.04s.94.34,1.44.34c.58,0,1.04-.13,1.38-.4.36-.26.58-.56.66-.9.05-.2.06-.38.03-.52-.03-.16-.12-.29-.25-.41-.13-.13-.33-.25-.57-.36-.24-.11-.53-.23-.88-.36-.42-.14-.83-.3-1.23-.47-.39-.18-.72-.41-.99-.7-.26-.29-.45-.65-.55-1.08-.09-.44-.05-1,.12-1.67s.44-1.28.79-1.82c.37-.55.8-1.02,1.3-1.4.51-.4,1.08-.7,1.71-.92.64-.22,1.33-.32,2.05-.32.67,0,1.35.1,2.03.29.69.18,1.32.45,1.9.81l-2.11,2.75Z"/><path id="path3918" class="cls-4" d="M281.39,106.3l-2.71,10.58h-3.53l2.71-10.58h-2.9l.77-2.99h9.32l-.77,2.99h-2.9Z"/><path id="path3920" class="cls-4" d="M288.58,109.38h.67c.7,0,1.27-.14,1.71-.43s.74-.7.88-1.24.06-.95-.24-1.24c-.3-.29-.8-.43-1.49-.43h-.67l-.86,3.35ZM294.41,116.88h-4.39l-2.03-5.22-1.34,5.22h-3.53l3.48-13.57h5.49c.76,0,1.39.11,1.89.34.51.22.89.52,1.16.9.27.38.44.83.49,1.33.06.5.02,1.04-.13,1.62-.26,1.03-.73,1.87-1.4,2.52-.66.64-1.5,1.07-2.53,1.3l2.84,5.56Z"/><path id="path3922" class="cls-4" d="M304.56,111.84l-.43-4.52-2.74,4.52h3.17ZM304.81,114.52h-5.04l-1.41,2.36h-3.76l8.65-13.57h3.85l1.69,13.57h-3.76l-.21-2.36Z"/><path id="path3924" class="cls-4" d="M317.6,106.3l-2.71,10.58h-3.53l2.71-10.58h-2.9l.77-2.99h9.32l-.77,2.99h-2.9Z"/><path id="path3926" class="cls-4" d="M327.38,111.84l-.43-4.52-2.74,4.52h3.17ZM327.62,114.52h-5.04l-1.41,2.36h-3.76l8.65-13.57h3.85l1.69,13.57h-3.76l-.21-2.36Z"/><path id="path3928" class="cls-4" d="M344.75,107.85c-.56-1-1.44-1.49-2.64-1.49-.53,0-1.04.1-1.55.29-.49.19-.94.46-1.36.79-.41.32-.77.71-1.07,1.17-.3.46-.51.95-.65,1.48s-.18,1.04-.11,1.49c.08.46.23.85.47,1.19.25.34.57.6.97.79.39.19.85.29,1.37.29,1.13,0,2.27-.48,3.41-1.44l-1.07,4.18-.39.13c-.59.19-1.13.33-1.62.41-.49.1-.97.14-1.42.14-.94,0-1.79-.17-2.57-.52-.76-.36-1.39-.86-1.88-1.49-.48-.65-.81-1.41-.98-2.29-.17-.89-.12-1.85.15-2.9s.7-2,1.31-2.86c.62-.88,1.34-1.63,2.14-2.25.82-.64,1.71-1.13,2.66-1.48.96-.36,1.91-.54,2.86-.54.54,0,1.05.06,1.54.18.5.11,1.01.28,1.52.52l-1.08,4.21Z"/><path id="path3930" class="cls-4" d="M353.67,111.84l-.43-4.52-2.74,4.52h3.17ZM353.92,114.52h-5.04l-1.41,2.36h-3.76l8.65-13.57h3.85l1.69,13.57h-3.76l-.21-2.36Z"/><path id="path3932" class="cls-4" d="M371.05,107.85c-.56-1-1.44-1.49-2.64-1.49-.53,0-1.04.1-1.55.29-.49.19-.94.46-1.36.79-.41.32-.77.71-1.07,1.17-.3.46-.51.95-.65,1.48-.14.54-.18,1.04-.11,1.49.08.46.23.85.47,1.19.25.34.57.6.97.79s.85.29,1.37.29c1.13,0,2.27-.48,3.41-1.44l-1.07,4.18-.39.13c-.59.19-1.13.33-1.62.41-.49.1-.97.14-1.42.14-.94,0-1.79-.17-2.57-.52-.76-.36-1.39-.86-1.88-1.49-.48-.65-.81-1.41-.98-2.29-.17-.89-.12-1.85.15-2.9s.7-2,1.31-2.86c.62-.88,1.34-1.63,2.14-2.25.82-.64,1.71-1.13,2.66-1.48.96-.36,1.91-.54,2.86-.54.54,0,1.05.06,1.54.18.5.11,1.01.28,1.52.52l-1.08,4.21Z"/><path id="path3934" class="cls-4" d="M377.21,108.55h5.09l1.34-5.24h3.53l-3.48,13.57h-3.53l1.44-5.6h-5.09l-1.44,5.6h-3.53l3.48-13.57h3.53l-1.34,5.24Z"/><path id="path3936" class="cls-4" d="M396.99,106.3h-4.19l-.58,2.27h3.96l-.77,2.99h-3.96l-.6,2.34h4.19l-.77,2.99h-7.72l3.48-13.57h7.72l-.77,2.99Z"/></g><g id="text3887" class="cls-3"><text class="cls-2" transform="translate(400 111.23) scale(1.1 1)"><tspan x="0" y="0">™</tspan></text></g></g></svg>