<svg width="500" height="129" viewBox="0 0 500 129" fill="none" xmlns="http://www.w3.org/2000/svg">
<g clip-path="url(#clip0_53_110)">
<path d="M65.4998 50.7C71.1998 65.8 79.9998 81.8 70.1998 84.7C56.1998 88.9 52.5998 60 38.0998 64.3C22.1998 69.1 44.1998 99.9 31.8998 103.5C19.5998 107.1 16.0998 84.7 4.39977 91.5C-7.30023 98.3 12.5998 133.8 36.4998 127.3C54.3998 122.4 50.2998 105.2 50.1998 98.1C50.0998 94.8 53.2998 94 55.0998 96C68.0998 109.7 74.9998 113.8 84.1998 111C102.1 105.6 103.7 66 91.1998 42.1C82.1998 24.5 58.4998 32 65.4998 50.7ZM103.6 35C113.6 33.4 120.6 24.4 119 14.8C117.4 5.2 108.1 -1.3 98.0998 0.299996C88.0998 1.9 81.0998 10.9 82.6998 20.5C84.1998 30.1 93.5998 36.6 103.6 35ZM118.6 54.5C123.8 51.8 126.1 46.3 123.7 42.2C121.3 38.1 115.1 37.1 109.8 39.8C104.6 42.5 102.3 48 104.7 52.1C107.1 56.1 113.3 57.2 118.6 54.5ZM118.7 75.7C124.1 75.2 127.9 71.2 127.3 66.9C126.6 62.6 121.7 59.6 116.3 60.1C110.9 60.6 107.1 64.6 107.7 68.9C108.4 73.2 113.3 76.3 118.7 75.7ZM112 94.7C116.4 96.5 121.4 95.1 123.2 91.5C125 87.9 122.9 83.4 118.5 81.6C114.1 79.8 109.1 81.2 107.3 84.8C105.5 88.4 107.6 92.9 112 94.7ZM104.6 111.6C108.9 112.9 113.2 111.2 114.3 107.7C115.3 104.3 112.7 100.4 108.4 99.1C104.1 97.8 99.7998 99.5 98.6998 103C97.5998 106.4 100.3 110.3 104.6 111.6Z" fill="#0084C9"/>
<path d="M156.9 57.7L164.2 82.7L170.8 59.5C171.5 57.1 172 55.4 172.4 54.5C172.7 53.6 173.4 52.8 174.3 51.9C175.3 51.1 176.5 50.7 178.2 50.7C179.9 50.7 181.2 51.1 182.1 51.9C183 52.7 183.7 53.6 184.1 54.5C184.5 55.4 185 57.1 185.7 59.4L192.3 82.6L199.7 57.6C200.2 55.8 200.6 54.5 200.9 53.7C201.2 52.9 201.7 52.2 202.4 51.6C203.1 51 204.1 50.7 205.5 50.7C206.8 50.7 208 51.2 209 52.1C210 53 210.5 54.1 210.5 55.4C210.5 56.5 210.1 58.3 209.2 60.6L200.1 87.4C199.3 89.7 198.7 91.3 198.3 92.3C197.9 93.3 197.2 94.2 196.2 95C195.3 95.8 194 96.2 192.3 96.2C190.6 96.2 189.3 95.8 188.3 94.9C187.3 94 186.6 93 186.2 91.8C185.7 90.6 185.2 89 184.7 87L178.3 65.2L172.1 87C171.3 90 170.4 92.3 169.4 93.9C168.4 95.5 166.8 96.2 164.4 96.2C163.2 96.2 162.1 96 161.3 95.5C160.4 95 159.7 94.3 159.1 93.5C158.5 92.6 158 91.6 157.6 90.4C157.2 89.2 156.8 88.2 156.6 87.5L147.6 60.7C146.7 58.2 146.2 56.4 146.2 55.5C146.2 54.3 146.7 53.2 147.6 52.3C148.6 51.3 149.7 50.9 151.1 50.9C152.9 50.9 154.2 51.4 154.9 52.5C155.5 53.3 156.2 55.1 156.9 57.7ZM241.5 89.8C238.8 91.9 236.2 93.5 233.6 94.5C231.1 95.5 228.2 96.1 225.1 96.1C222.2 96.1 219.7 95.5 217.5 94.4C215.3 93.3 213.6 91.7 212.5 89.8C211.3 87.8 210.7 85.8 210.7 83.5C210.7 80.4 211.7 77.8 213.6 75.7C215.6 73.5 218.2 72.1 221.6 71.4C222.3 71.2 224.1 70.9 226.9 70.3C229.7 69.7 232.1 69.2 234.1 68.7C236.1 68.2 238.3 67.7 240.6 66.9C240.5 64 239.9 61.8 238.8 60.4C237.8 59 235.6 58.3 232.3 58.3C229.5 58.3 227.3 58.7 225.9 59.5C224.5 60.3 223.2 61.5 222.2 63.1C221.2 64.7 220.4 65.7 220 66.2C219.6 66.7 218.7 67 217.3 67C216.1 67 214.9 66.6 214 65.8C213.1 65 212.6 64 212.6 62.7C212.6 60.7 213.3 58.8 214.7 57C216.1 55.1 218.3 53.6 221.2 52.4C224.1 51.2 227.8 50.6 232.2 50.6C237.1 50.6 241 51.2 243.8 52.4C246.6 53.6 248.6 55.4 249.8 57.9C251 60.4 251.6 63.7 251.6 67.9C251.6 70.5 251.6 72.7 251.6 74.6C251.6 76.4 251.6 78.5 251.5 80.7C251.5 82.8 251.8 85 252.5 87.3C253.2 89.6 253.5 91 253.5 91.7C253.5 92.8 253 93.9 251.9 94.8C250.8 95.7 249.6 96.2 248.2 96.2C247.1 96.2 245.9 95.7 244.8 94.6C243.7 93.5 242.7 91.9 241.5 89.8ZM240.8 73.7C239.2 74.3 236.8 74.9 233.7 75.6C230.6 76.3 228.4 76.8 227.2 77.1C226 77.4 224.8 78 223.8 78.9C222.8 79.8 222.2 81.1 222.2 82.7C222.2 84.4 222.9 85.8 224.1 87C225.4 88.2 227.1 88.8 229.1 88.8C231.3 88.8 233.4 88.3 235.2 87.4C237.1 86.4 238.4 85.2 239.3 83.7C240.3 82 240.8 79.2 240.8 75.3V73.7ZM259.3 89.4V40.9C259.3 38.7 259.8 37 260.8 35.8C261.8 34.7 263.1 34.1 264.8 34.1C266.5 34.1 267.8 34.7 268.9 35.8C269.9 36.9 270.5 38.6 270.5 40.9V89.4C270.5 91.7 270 93.4 268.9 94.5C267.9 95.6 266.5 96.2 264.8 96.2C263.1 96.2 261.8 95.6 260.8 94.4C259.8 93.2 259.3 91.5 259.3 89.4ZM306.1 91L296.2 74.8L290.1 80.5V89.4C290.1 91.6 289.5 93.2 288.4 94.4C287.3 95.6 286 96.1 284.5 96.1C282.8 96.1 281.4 95.5 280.4 94.4C279.4 93.3 278.9 91.6 278.9 89.3V41.7C278.9 39.2 279.4 37.3 280.3 36C281.3 34.7 282.6 34 284.4 34C286.1 34 287.5 34.6 288.5 35.8C289.5 37 290 38.7 290 41V68.1L302.6 54.9C304.2 53.3 305.3 52.1 306.2 51.5C307 50.9 308 50.6 309.2 50.6C310.6 50.6 311.8 51.1 312.7 51.9C313.6 52.8 314.1 53.9 314.1 55.2C314.1 56.8 312.6 59 309.6 61.7L303.6 67.1L315.1 85.1C316 86.4 316.5 87.5 316.9 88.2C317.3 88.9 317.5 89.6 317.5 90.2C317.5 92 317 93.4 316.1 94.4C315.1 95.4 313.9 95.9 312.3 95.9C310.9 95.9 309.9 95.5 309.2 94.8C308.5 94.1 307.4 93 306.1 91Z" fill="white"/>
<path d="M332.9 40.5V57.6C335 55.4 337.2 53.7 339.3 52.6C341.5 51.4 344.2 50.8 347.4 50.8C351.1 50.8 354.4 51.7 357.2 53.4C360 55.2 362.2 57.7 363.7 61.1C365.3 64.4 366 68.4 366 73C366 76.4 365.6 79.5 364.7 82.3C363.8 85.1 362.6 87.6 361 89.6C359.4 91.7 357.4 93.3 355 94.4C352.7 95.5 350.1 96.1 347.3 96.1C345.6 96.1 344 95.9 342.4 95.5C340.9 95.1 339.6 94.5 338.5 93.9C337.5 93.2 336.5 92.5 335.8 91.8C335.1 91.1 334.1 90 332.8 88.6V89.7C332.8 91.8 332.3 93.4 331.3 94.5C330.3 95.6 329 96.1 327.4 96.1C325.8 96.1 324.5 95.6 323.6 94.5C322.7 93.4 322.2 91.8 322.2 89.7V40.9C322.2 38.6 322.7 36.9 323.6 35.8C324.5 34.6 325.8 34.1 327.4 34.1C329.1 34.1 330.4 34.7 331.4 35.8C332.4 36.9 332.9 38.4 332.9 40.5ZM333.4 73.6C333.4 78.1 334.4 81.5 336.4 83.9C338.4 86.3 341.1 87.5 344.4 87.5C347.2 87.5 349.6 86.3 351.7 83.8C353.7 81.4 354.7 77.8 354.7 73.3C354.7 70.4 354.3 67.8 353.4 65.7C352.5 63.6 351.4 61.9 349.8 60.7C348.2 59.5 346.4 59 344.4 59C342.3 59 340.4 59.6 338.7 60.7C337 61.9 335.7 63.6 334.8 65.7C333.9 67.8 333.4 70.6 333.4 73.6ZM399.5 89.8C396.8 91.9 394.2 93.5 391.6 94.5C389.1 95.5 386.2 96.1 383.1 96.1C380.2 96.1 377.7 95.5 375.5 94.4C373.3 93.3 371.6 91.7 370.5 89.8C369.3 87.8 368.7 85.8 368.7 83.5C368.7 80.4 369.7 77.8 371.6 75.7C373.6 73.5 376.2 72.1 379.6 71.4C380.3 71.2 382.1 70.9 384.9 70.3C387.7 69.7 390.1 69.2 392.1 68.7C394.1 68.2 396.3 67.7 398.6 66.9C398.5 64 397.9 61.8 396.8 60.4C395.7 59 393.6 58.3 390.3 58.3C387.5 58.3 385.3 58.7 383.9 59.5C382.5 60.3 381.2 61.5 380.2 63.1C379.2 64.7 378.4 65.7 378 66.2C377.6 66.7 376.7 67 375.3 67C374.1 67 372.9 66.6 372 65.8C371.1 65 370.6 64 370.6 62.7C370.6 60.7 371.3 58.8 372.7 57C374.1 55.1 376.3 53.6 379.2 52.4C382.1 51.2 385.8 50.6 390.2 50.6C395.1 50.6 399 51.2 401.8 52.4C404.6 53.6 406.6 55.4 407.8 57.9C409 60.4 409.6 63.7 409.6 67.9C409.6 70.5 409.6 72.7 409.6 74.6C409.6 76.4 409.6 78.5 409.5 80.7C409.5 82.8 409.8 85 410.5 87.3C411.2 89.6 411.5 91 411.5 91.7C411.5 92.8 411 93.9 409.9 94.8C408.8 95.7 407.6 96.2 406.2 96.2C405.1 96.2 403.9 95.7 402.8 94.6C401.9 93.4 400.7 91.8 399.5 89.8ZM398.8 73.6C397.2 74.2 394.8 74.8 391.7 75.5C388.6 76.2 386.4 76.7 385.2 77C384 77.3 382.8 77.9 381.8 78.8C380.7 79.7 380.2 81 380.2 82.6C380.2 84.3 380.9 85.7 382.1 86.9C383.4 88.1 385.1 88.7 387.1 88.7C389.3 88.7 391.4 88.2 393.2 87.3C395.1 86.3 396.4 85.1 397.3 83.6C398.3 81.9 398.8 79.1 398.8 75.2V73.6ZM453.3 81.5C453.3 84.6 452.5 87.2 451.1 89.4C449.6 91.6 447.4 93.3 444.4 94.4C441.4 95.5 437.9 96.1 433.7 96.1C429.7 96.1 426.2 95.5 423.4 94.3C420.5 93.1 418.4 91.5 417.1 89.7C415.7 87.9 415.1 86 415.1 84.1C415.1 82.9 415.5 81.8 416.4 81C417.3 80.1 418.4 79.7 419.7 79.7C420.9 79.7 421.8 80 422.4 80.6C423 81.2 423.6 82 424.2 83C425.3 85 426.7 86.5 428.3 87.5C429.9 88.5 432.1 89 434.8 89C437 89 438.9 88.5 440.3 87.5C441.7 86.5 442.5 85.4 442.5 84.1C442.5 82.1 441.8 80.7 440.3 79.8C438.8 78.9 436.4 78 433 77.2C429.1 76.2 426 75.2 423.6 74.2C421.2 73.2 419.3 71.8 417.8 70.1C416.4 68.4 415.6 66.2 415.6 63.8C415.6 61.6 416.3 59.4 417.6 57.5C418.9 55.5 420.9 53.9 423.5 52.7C426.1 51.5 429.3 50.9 432.9 50.9C435.8 50.9 438.4 51.2 440.7 51.8C443 52.4 444.9 53.2 446.5 54.2C448.1 55.2 449.2 56.3 450 57.6C450.8 58.8 451.2 60 451.2 61.2C451.2 62.5 450.8 63.5 449.9 64.3C449 65.1 447.8 65.5 446.2 65.5C445.1 65.5 444.1 65.2 443.3 64.5C442.5 63.8 441.6 62.9 440.5 61.6C439.6 60.5 438.7 59.6 437.5 59C436.4 58.3 434.8 58 432.8 58C430.8 58 429.1 58.4 427.8 59.3C426.5 60.2 425.8 61.2 425.8 62.5C425.8 63.7 426.3 64.6 427.3 65.4C428.3 66.1 429.6 66.8 431.3 67.3C433 67.8 435.3 68.4 438.2 69.1C441.7 70 444.5 71 446.7 72.1C448.9 73.3 450.6 74.7 451.7 76.2C452.8 77.6 453.3 79.5 453.3 81.5ZM490.2 76.1H468.3C468.3 78.7 468.8 80.9 469.8 82.8C470.8 84.8 472.1 86.2 473.8 87.2C475.4 88.2 477.3 88.7 479.3 88.7C480.6 88.7 481.9 88.6 483 88.2C484.1 87.9 485.2 87.4 486.2 86.7C487.2 86 488.2 85.3 489.1 84.5C490 83.7 491.1 82.7 492.5 81.4C493.1 80.9 493.9 80.7 494.9 80.7C496 80.7 497 81 497.7 81.7C498.4 82.3 498.7 83.2 498.7 84.4C498.7 85.4 498.3 86.6 497.5 87.9C496.7 89.2 495.5 90.5 493.9 91.8C492.3 93 490.3 94.1 487.9 94.9C485.5 95.7 482.7 96.1 479.6 96.1C472.4 96.1 466.8 94.1 462.8 90C458.8 85.9 456.8 80.3 456.8 73.3C456.8 70 457.3 66.9 458.3 64.1C459.3 61.3 460.7 58.9 462.6 56.8C464.5 54.8 466.8 53.2 469.6 52.2C472.3 51.1 475.4 50.6 478.8 50.6C483.2 50.6 486.9 51.5 490 53.4C493.1 55.3 495.5 57.6 497 60.5C498.6 63.4 499.3 66.4 499.3 69.4C499.3 72.2 498.5 74 496.9 74.9C495.3 75.7 493 76.2 490.2 76.1ZM468.4 69.8H488.7C488.4 66 487.4 63.1 485.6 61.2C483.8 59.3 481.5 58.3 478.5 58.3C475.7 58.3 473.4 59.3 471.6 61.2C469.8 63.1 468.7 66.1 468.4 69.8Z" fill="white"/>
<path d="M255.781 106.669L254.599 116.308H252.43L252.529 115.294C251.543 116.105 250.656 116.613 249.572 116.613C248.291 116.613 247.305 116.207 246.517 115.294C245.728 114.38 245.334 113.264 245.334 111.945C245.334 110.322 245.827 109.003 246.714 107.988C247.601 106.974 248.784 106.466 250.262 106.466C250.952 106.466 251.543 106.568 251.937 106.771C252.43 106.974 252.923 107.38 253.416 107.988L253.613 106.669H255.781ZM253.022 111.235C253.022 110.423 252.825 109.713 252.332 109.104C251.839 108.597 251.248 108.293 250.459 108.293C249.671 108.293 248.981 108.597 248.389 109.307C247.798 110.018 247.601 110.829 247.601 111.742C247.601 112.554 247.798 113.264 248.291 113.873C248.784 114.38 249.375 114.685 250.065 114.685C250.853 114.685 251.543 114.38 252.135 113.67C252.726 113.061 253.022 112.25 253.022 111.235Z" fill="white"/>
<path d="M423.332 107.684L423.037 110.018C422.544 109.409 422.15 109.003 421.755 108.699C421.361 108.496 420.868 108.293 420.277 108.293C419.488 108.293 418.799 108.597 418.207 109.206C417.714 109.815 417.419 110.626 417.419 111.641C417.419 112.554 417.714 113.366 418.207 113.873C418.7 114.482 419.39 114.685 420.178 114.685C420.967 114.685 421.755 114.38 422.544 113.67L422.248 116.105C421.361 116.511 420.573 116.613 419.784 116.613C418.404 116.613 417.32 116.105 416.433 115.192C415.546 114.279 415.152 113.061 415.152 111.641C415.152 110.119 415.645 108.901 416.532 107.887C417.419 106.872 418.601 106.365 419.981 106.365C421.164 106.365 422.248 106.771 423.332 107.684Z" fill="white"/>
<path d="M434.962 111.438C434.962 112.96 434.469 114.177 433.484 115.192C432.498 116.207 431.315 116.714 429.837 116.714C428.359 116.714 427.077 116.207 426.092 115.294C425.106 114.38 424.613 113.163 424.613 111.641C424.613 110.119 425.106 108.901 426.092 107.887C427.077 106.872 428.359 106.365 429.837 106.365C431.315 106.365 432.498 106.872 433.484 107.785C434.469 108.699 434.962 109.916 434.962 111.438ZM432.695 111.337C432.695 110.423 432.399 109.713 431.907 109.104C431.414 108.496 430.724 108.293 429.837 108.293C428.95 108.293 428.26 108.597 427.669 109.206C427.077 109.815 426.782 110.626 426.782 111.539C426.782 112.453 427.077 113.264 427.57 113.873C428.161 114.482 428.851 114.786 429.64 114.786C430.527 114.786 431.217 114.482 431.808 113.772C432.498 113.163 432.695 112.351 432.695 111.337Z" fill="white"/>
<path d="M440.284 106.669L440.186 107.582C440.974 106.771 441.763 106.466 442.748 106.466C443.339 106.466 443.832 106.568 444.128 106.771C444.424 106.974 444.719 107.38 445.015 107.988C445.902 106.974 446.986 106.466 448.07 106.466C449.943 106.466 450.83 107.38 450.83 109.104C450.83 109.307 450.83 109.51 450.731 109.815C450.731 110.119 450.633 110.525 450.633 111.032L450.042 116.41H447.873L448.563 110.829C448.662 110.322 448.662 109.916 448.662 109.713C448.662 108.901 448.267 108.496 447.38 108.496C447.085 108.496 446.789 108.597 446.493 108.699C446.296 108.8 446.001 108.901 445.902 109.206C445.705 109.409 445.606 109.713 445.508 110.018C445.409 110.322 445.311 110.728 445.212 111.235L444.621 116.613H442.452L443.142 110.829C443.241 110.322 443.241 109.916 443.241 109.713C443.241 108.901 442.847 108.496 441.96 108.496C440.777 108.496 439.988 109.409 439.791 111.134L439.101 116.511H436.933L438.116 106.872H440.284V106.669Z" fill="white"/>
<path d="M456.448 106.669L456.35 107.684C457.335 106.872 458.321 106.466 459.307 106.466C460.588 106.466 461.573 106.872 462.46 107.785C463.249 108.699 463.742 109.815 463.742 111.134C463.742 112.656 463.249 113.975 462.362 114.989C461.376 116.004 460.292 116.511 458.814 116.511C458.124 116.511 457.532 116.41 457.04 116.207C456.547 116.004 456.054 115.598 455.561 114.989L454.773 121.889H452.604L454.379 106.669H456.448ZM461.573 111.337C461.573 110.525 461.376 109.815 460.883 109.206C460.391 108.699 459.799 108.394 459.011 108.394C458.124 108.394 457.335 108.699 456.744 109.409C456.153 110.119 455.857 110.931 455.857 111.844C455.857 112.656 456.153 113.366 456.645 113.873C457.138 114.38 457.828 114.685 458.617 114.685C459.405 114.685 460.194 114.38 460.686 113.67C461.278 113.061 461.573 112.25 461.573 111.337Z" fill="white"/>
<path d="M476.062 106.669L474.879 116.308H472.711L472.809 115.294C471.823 116.105 470.936 116.613 469.852 116.613C468.571 116.613 467.585 116.207 466.797 115.294C466.009 114.38 465.614 113.264 465.614 111.945C465.614 110.322 466.107 109.003 466.994 107.988C467.881 106.974 469.064 106.466 470.542 106.466C471.232 106.466 471.824 106.568 472.218 106.771C472.711 106.974 473.203 107.38 473.696 107.988L473.893 106.669H476.062ZM473.4 111.235C473.4 110.423 473.203 109.713 472.711 109.104C472.218 108.597 471.626 108.293 470.838 108.293C470.049 108.293 469.36 108.597 468.768 109.307C468.177 110.018 467.98 110.829 467.98 111.742C467.98 112.554 468.177 113.264 468.67 113.873C469.162 114.38 469.754 114.685 470.444 114.685C471.232 114.685 471.922 114.38 472.513 113.67C473.105 113.061 473.4 112.25 473.4 111.235Z" fill="white"/>
<path d="M481.285 106.669L481.187 107.582C482.074 106.872 482.961 106.466 483.848 106.466C484.735 106.466 485.523 106.771 486.016 107.278C486.509 107.785 486.804 108.496 486.804 109.409C486.804 109.916 486.804 110.525 486.706 111.134L486.115 116.308H483.946L484.636 110.626C484.636 110.423 484.636 110.22 484.735 110.018C484.735 109.815 484.735 109.713 484.735 109.612C484.735 108.699 484.242 108.293 483.355 108.293C482.764 108.293 482.271 108.496 481.877 108.8C481.581 109.104 481.285 109.409 481.187 109.815C481.088 110.018 480.989 110.322 480.989 110.525C480.891 110.829 480.891 111.134 480.792 111.539L480.201 116.207H478.033L479.215 106.568H481.285V106.669Z" fill="white"/>
<path d="M499.026 106.669L490.549 121.889H488.085L491.831 115.192L488.48 106.771H490.845L493.211 112.96L496.66 106.771H499.026V106.669Z" fill="white"/>
<path d="M274.554 106.759C274.154 106.459 273.754 106.259 273.354 106.059C272.954 105.859 272.554 105.859 272.254 105.859C271.754 105.859 271.454 105.959 271.154 106.159C270.854 106.359 270.754 106.659 270.754 106.959C270.754 107.159 270.854 107.359 270.954 107.559C271.054 107.759 271.254 107.859 271.554 107.959C271.754 108.059 272.054 108.159 272.354 108.259C272.654 108.359 272.954 108.459 273.254 108.559C274.454 108.959 275.254 109.459 275.754 110.059C276.254 110.659 276.554 111.559 276.554 112.559C276.554 113.259 276.454 113.859 276.154 114.459C275.954 115.059 275.554 115.459 275.154 115.959C274.754 116.359 274.154 116.659 273.454 116.859C272.854 117.059 272.054 117.159 271.254 117.159C269.554 117.159 267.954 116.659 266.454 115.659L267.954 112.859C268.454 113.359 269.054 113.659 269.554 113.859C270.054 114.059 270.554 114.159 271.054 114.159C271.654 114.159 272.054 114.059 272.354 113.759C272.654 113.459 272.754 113.159 272.754 112.859C272.754 112.659 272.754 112.459 272.654 112.359C272.554 112.159 272.454 112.059 272.254 111.959C272.054 111.859 271.854 111.659 271.554 111.559C271.254 111.459 270.954 111.359 270.554 111.159C270.054 111.059 269.654 110.859 269.254 110.659C268.854 110.459 268.454 110.259 268.054 109.959C267.754 109.659 267.454 109.359 267.254 108.859C267.054 108.459 266.954 107.859 266.954 107.159C266.954 106.459 267.054 105.859 267.254 105.359C267.454 104.759 267.754 104.359 268.154 103.959C268.554 103.559 269.054 103.259 269.654 103.059C270.254 102.859 270.854 102.759 271.654 102.759C272.354 102.759 273.054 102.859 273.754 103.059C274.454 103.259 275.154 103.459 275.854 103.859L274.554 106.759Z" fill="white"/>
<path d="M284.054 106.259V116.859H280.554V106.259H277.654V103.259H286.954V106.259H284.054Z" fill="white"/>
<path d="M292.054 109.359H292.754C293.454 109.359 293.954 109.259 294.354 108.959C294.754 108.659 294.954 108.259 294.954 107.759C294.954 107.259 294.754 106.759 294.354 106.559C293.954 106.259 293.454 106.159 292.754 106.159H292.054V109.359ZM299.754 116.859H295.354L291.954 111.659V116.859H288.454V103.259H293.954C294.754 103.259 295.354 103.359 295.954 103.559C296.554 103.759 296.954 104.059 297.354 104.459C297.754 104.859 297.954 105.259 298.154 105.759C298.354 106.259 298.454 106.759 298.454 107.359C298.454 108.359 298.154 109.259 297.654 109.859C297.154 110.459 296.454 110.959 295.454 111.159L299.754 116.859Z" fill="white"/>
<path d="M308.654 111.759L307.054 107.259L305.454 111.759H308.654ZM309.554 114.459H304.554L303.754 116.859H299.954L305.154 103.259H309.054L314.254 116.859H310.454L309.554 114.459Z" fill="white"/>
<path d="M320.254 106.259V116.859H316.754V106.259H313.854V103.259H323.154V106.259H320.254Z" fill="white"/>
<path d="M331.453 111.759L329.853 107.259L328.253 111.759H331.453ZM332.353 114.459H327.353L326.553 116.859H322.753L327.953 103.259H331.853L337.053 116.859H333.253L332.353 114.459Z" fill="white"/>
<path d="M347.754 107.859C346.954 106.859 345.954 106.359 344.754 106.359C344.254 106.359 343.754 106.459 343.254 106.659C342.854 106.859 342.454 107.159 342.054 107.459C341.754 107.759 341.454 108.159 341.254 108.659C341.054 109.159 340.954 109.559 340.954 110.159C340.954 110.659 341.054 111.159 341.254 111.659C341.454 112.159 341.654 112.559 342.054 112.859C342.354 113.159 342.754 113.459 343.254 113.659C343.654 113.859 344.154 113.959 344.654 113.959C345.754 113.959 346.754 113.459 347.654 112.559V116.759L347.254 116.859C346.754 117.059 346.254 117.159 345.754 117.259C345.254 117.359 344.854 117.359 344.354 117.359C343.454 117.359 342.554 117.159 341.654 116.859C340.754 116.459 340.054 115.959 339.354 115.359C338.754 114.759 338.154 113.959 337.754 113.059C337.354 112.159 337.154 111.159 337.154 110.159C337.154 109.159 337.354 108.159 337.754 107.259C338.154 106.359 338.654 105.659 339.354 105.059C340.054 104.459 340.754 103.959 341.654 103.559C342.554 103.159 343.454 103.059 344.354 103.059C344.854 103.059 345.454 103.159 345.954 103.259C346.454 103.359 347.054 103.559 347.654 103.759L347.754 107.859Z" fill="white"/>
<path d="M357.754 111.759L356.154 107.259L354.554 111.759H357.754ZM358.654 114.459H353.654L352.854 116.859H349.054L354.254 103.259H358.154L363.354 116.859H359.554L358.654 114.459Z" fill="white"/>
<path d="M374.054 107.859C373.254 106.859 372.254 106.359 371.054 106.359C370.554 106.359 370.054 106.459 369.554 106.659C369.154 106.859 368.754 107.159 368.354 107.459C368.054 107.759 367.754 108.159 367.554 108.659C367.354 109.159 367.254 109.559 367.254 110.159C367.254 110.659 367.354 111.159 367.554 111.659C367.754 112.159 368.054 112.559 368.354 112.859C368.654 113.159 369.054 113.459 369.554 113.659C370.054 113.859 370.454 113.959 370.954 113.959C372.054 113.959 373.054 113.459 373.954 112.559V116.759L373.554 116.859C373.054 117.059 372.554 117.159 372.054 117.259C371.554 117.359 371.154 117.359 370.654 117.359C369.754 117.359 368.854 117.159 367.954 116.859C367.054 116.459 366.354 115.959 365.654 115.359C365.054 114.759 364.454 113.959 364.054 113.059C363.654 112.159 363.454 111.159 363.454 110.159C363.454 109.159 363.654 108.159 364.054 107.259C364.454 106.359 364.954 105.659 365.654 105.059C366.354 104.459 367.054 103.959 367.954 103.559C368.854 103.159 369.754 103.059 370.654 103.059C371.154 103.059 371.754 103.159 372.254 103.259C372.754 103.359 373.354 103.559 373.954 103.759L374.054 107.859Z" fill="white"/>
<path d="M380.454 108.559H385.554V103.259H389.054V116.859H385.554V111.259H380.454V116.859H376.954V103.259H380.454V108.559Z" fill="white"/>
<path d="M399.654 106.259H395.454V108.559H399.454V111.559H395.454V113.859H399.654V116.859H391.954V103.259H399.654V106.259Z" fill="white"/>
<path d="M401.612 103.282H404.505V103.907H403.434V106.806H402.689V103.907H401.612V103.282ZM409.096 103.282V106.806H408.447V104.633L408.494 104.193L407.405 106.187C407.357 106.298 407.272 106.354 407.149 106.354H407.042C406.918 106.354 406.831 106.298 406.78 106.187L405.684 104.193L405.738 104.633V106.806H405.077V103.282H405.708C405.775 103.282 405.823 103.29 405.851 103.306C405.883 103.321 405.92 103.355 405.964 103.407L406.97 105.211C407.022 105.318 407.061 105.421 407.089 105.52C407.121 105.409 407.163 105.306 407.214 105.211L408.22 103.407C408.26 103.355 408.294 103.321 408.322 103.306C408.353 103.29 408.403 103.282 408.47 103.282H409.096Z" fill="white"/>
</g>
<defs>
<clipPath id="clip0_53_110">
<rect width="500" height="129" fill="white"/>
</clipPath>
</defs>
</svg>
