<svg width="1024" height="1024" viewBox="0 0 1024 1024" fill="none" xmlns="http://www.w3.org/2000/svg">
<path d="M140.23 230C137.952 230 136.812 228.779 136.812 226.338V163.643C136.812 161.201 137.952 159.98 140.23 159.98H157.271C172.245 159.98 182.369 163.008 187.643 169.062C192.949 175.117 195.602 183.727 195.602 194.893C195.602 206.058 192.949 214.701 187.643 220.82C182.369 226.94 172.245 230 157.271 230H140.23ZM151.07 217.891H156.344C166.435 217.891 172.962 216.019 175.924 212.275C178.886 208.499 180.367 202.705 180.367 194.893C180.367 187.08 178.886 181.318 175.924 177.607C172.962 173.864 166.435 171.992 156.344 171.992H151.07V217.891ZM211.031 230C208.753 230 207.613 228.779 207.613 226.338V163.643C207.613 161.201 208.753 159.98 211.031 159.98H252.926C255.367 159.98 256.588 161.038 256.588 163.154V168.916C256.588 171.032 255.367 172.09 252.926 172.09H221.871V187.617H250.338C252.779 187.617 254 188.675 254 190.791V196.553C254 198.669 252.779 199.727 250.338 199.727H221.871V217.891H254.488C256.93 217.891 258.15 218.949 258.15 221.064V226.826C258.15 228.942 256.93 230 254.488 230H211.031ZM273.531 230C271.253 230 270.113 228.779 270.113 226.338V163.643C270.113 161.201 271.253 159.98 273.531 159.98H287.691C289.579 159.98 290.93 161.283 291.744 163.887L304.977 206.709C305.562 208.564 305.969 210.094 306.197 211.299C306.425 212.471 306.62 213.87 306.783 215.498H307.076C307.239 213.87 307.434 212.471 307.662 211.299C307.89 210.094 308.297 208.564 308.883 206.709L322.115 163.887C322.929 161.283 324.28 159.98 326.168 159.98H340.328C342.607 159.98 343.746 161.201 343.746 163.643V226.338C343.746 228.779 342.607 230 340.328 230H332.906C330.628 230 329.488 228.779 329.488 226.338V186.006C329.488 184.053 329.57 182.1 329.732 180.146H329.391L315.279 226.045C314.465 228.682 313.066 230 311.08 230H302.779C300.794 230 299.394 228.682 298.58 226.045L284.469 180.146H284.127C284.29 182.1 284.371 184.053 284.371 186.006V226.338C284.371 228.779 283.232 230 280.953 230H273.531ZM355.758 194.99C355.758 183.76 358.655 174.84 364.449 168.232C370.243 161.624 378.512 158.32 389.254 158.32C399.996 158.32 408.264 161.624 414.059 168.232C419.853 174.84 422.75 183.76 422.75 194.99C422.75 206.221 419.853 215.14 414.059 221.748C408.264 228.356 399.996 231.66 389.254 231.66C378.512 231.66 370.243 228.356 364.449 221.748C358.655 215.14 355.758 206.221 355.758 194.99ZM370.992 194.99C370.992 203.128 372.441 209.362 375.338 213.691C378.268 217.988 382.906 220.137 389.254 220.137C395.602 220.137 400.224 217.988 403.121 213.691C406.051 209.362 407.516 203.128 407.516 194.99C407.516 186.852 406.051 180.635 403.121 176.338C400.224 172.008 395.602 169.844 389.254 169.844C382.906 169.844 378.268 172.008 375.338 176.338C372.441 180.635 370.992 186.852 370.992 194.99Z" fill="#FF0000" style="fill:#FF0000;fill:color(display-p3 1.0000 0.0016 0.0016);fill-opacity:1;"/>
</svg>
