<svg width="1024" height="1024" viewBox="0 0 1024 1024" fill="none" xmlns="http://www.w3.org/2000/svg">
<circle cx="176" cy="722" r="50" fill="#214098" style="fill:#214098;fill:color(display-p3 0.1294 0.2510 0.5961);fill-opacity:1;"/>
<circle cx="346.5" cy="829.5" r="62.5" fill="#214098" style="fill:#214098;fill:color(display-p3 0.1294 0.2510 0.5961);fill-opacity:1;"/>
<circle cx="373.5" cy="571.5" r="62.5" fill="#214098" style="fill:#214098;fill:color(display-p3 0.1294 0.2510 0.5961);fill-opacity:1;"/>
<circle cx="626" cy="713" r="75" fill="#214098" style="fill:#214098;fill:color(display-p3 0.1294 0.2510 0.5961);fill-opacity:1;"/>
<circle cx="587" cy="391" r="75" fill="#214098" style="fill:#214098;fill:color(display-p3 0.1294 0.2510 0.5961);fill-opacity:1;"/>
<circle cx="768" cy="766" r="35" fill="#214098" style="fill:#214098;fill:color(display-p3 0.1294 0.2510 0.5961);fill-opacity:1;"/>
<circle cx="822" cy="660" r="40" fill="#214098" style="fill:#214098;fill:color(display-p3 0.1294 0.2510 0.5961);fill-opacity:1;"/>
<circle cx="835" cy="536" r="45" fill="#214098" style="fill:#214098;fill:color(display-p3 0.1294 0.2510 0.5961);fill-opacity:1;"/>
<circle cx="817" cy="408" r="50" fill="#214098" style="fill:#214098;fill:color(display-p3 0.1294 0.2510 0.5961);fill-opacity:1;"/>
<path d="M733.655 84.3363C734.461 82.1597 737.539 82.1597 738.345 84.3363L776.115 186.408C776.368 187.093 776.907 187.632 777.592 187.885L879.664 225.655C881.84 226.461 881.84 229.539 879.664 230.345L777.592 268.115C776.907 268.368 776.368 268.907 776.115 269.592L738.345 371.664C737.539 373.84 734.461 373.84 733.655 371.664L695.885 269.592C695.632 268.907 695.093 268.368 694.408 268.115L592.336 230.345C590.16 229.539 590.16 226.461 592.336 225.655L694.408 187.885C695.093 187.632 695.632 187.093 695.885 186.408L733.655 84.3363Z" fill="#214098" style="fill:#214098;fill:color(display-p3 0.1294 0.2510 0.5961);fill-opacity:1;"/>
<path d="M265 787L238 771" stroke="#214098" style="stroke:#214098;stroke:color(display-p3 0.1294 0.2510 0.5961);stroke-opacity:1;" stroke-width="50" stroke-linecap="round"/>
<path d="M360 738L367 664" stroke="#214098" style="stroke:#214098;stroke:color(display-p3 0.1294 0.2510 0.5961);stroke-opacity:1;" stroke-width="50" stroke-linecap="round"/>
<path d="M531 668L450 623" stroke="#214098" style="stroke:#214098;stroke:color(display-p3 0.1294 0.2510 0.5961);stroke-opacity:1;" stroke-width="50" stroke-linecap="round"/>
<path d="M614 609L601 495" stroke="#214098" style="stroke:#214098;stroke:color(display-p3 0.1294 0.2510 0.5961);stroke-opacity:1;" stroke-width="50" stroke-linecap="round"/>
</svg>
