<svg width="760" height="814" viewBox="0 0 760 814" fill="none" xmlns="http://www.w3.org/2000/svg">
<circle cx="50" cy="644" r="50" fill="#214098" style="fill:#214098;fill:color(display-p3 0.1294 0.2510 0.5961);fill-opacity:1;"/>
<circle cx="220.5" cy="751.5" r="62.5" fill="#214098" style="fill:#214098;fill:color(display-p3 0.1294 0.2510 0.5961);fill-opacity:1;"/>
<circle cx="247.5" cy="493.5" r="62.5" fill="#214098" style="fill:#214098;fill:color(display-p3 0.1294 0.2510 0.5961);fill-opacity:1;"/>
<circle cx="500" cy="635" r="75" fill="#214098" style="fill:#214098;fill:color(display-p3 0.1294 0.2510 0.5961);fill-opacity:1;"/>
<circle cx="461" cy="313" r="75" fill="#214098" style="fill:#214098;fill:color(display-p3 0.1294 0.2510 0.5961);fill-opacity:1;"/>
<circle cx="642" cy="688" r="35" fill="#214098" style="fill:#214098;fill:color(display-p3 0.1294 0.2510 0.5961);fill-opacity:1;"/>
<circle cx="696" cy="582" r="40" fill="#214098" style="fill:#214098;fill:color(display-p3 0.1294 0.2510 0.5961);fill-opacity:1;"/>
<circle cx="709" cy="458" r="45" fill="#214098" style="fill:#214098;fill:color(display-p3 0.1294 0.2510 0.5961);fill-opacity:1;"/>
<circle cx="691" cy="330" r="50" fill="#214098" style="fill:#214098;fill:color(display-p3 0.1294 0.2510 0.5961);fill-opacity:1;"/>
<path d="M607.655 6.33627C608.461 4.15972 611.539 4.15972 612.345 6.33626L650.115 108.408C650.368 109.093 650.907 109.632 651.592 109.885L753.664 147.655C755.84 148.461 755.84 151.539 753.664 152.345L651.592 190.115C650.907 190.368 650.368 190.907 650.115 191.592L612.345 293.664C611.539 295.84 608.461 295.84 607.655 293.664L569.885 191.592C569.632 190.907 569.093 190.368 568.408 190.115L466.336 152.345C464.16 151.539 464.16 148.461 466.336 147.655L568.408 109.885C569.093 109.632 569.632 109.093 569.885 108.408L607.655 6.33627Z" fill="#214098" style="fill:#214098;fill:color(display-p3 0.1294 0.2510 0.5961);fill-opacity:1;"/>
<path d="M139 709L112 693" stroke="#214098" style="stroke:#214098;stroke:color(display-p3 0.1294 0.2510 0.5961);stroke-opacity:1;" stroke-width="50" stroke-linecap="round"/>
<path d="M234 660L241 586" stroke="#214098" style="stroke:#214098;stroke:color(display-p3 0.1294 0.2510 0.5961);stroke-opacity:1;" stroke-width="50" stroke-linecap="round"/>
<path d="M405 590L324 545" stroke="#214098" style="stroke:#214098;stroke:color(display-p3 0.1294 0.2510 0.5961);stroke-opacity:1;" stroke-width="50" stroke-linecap="round"/>
<path d="M488 531L475 417" stroke="#214098" style="stroke:#214098;stroke:color(display-p3 0.1294 0.2510 0.5961);stroke-opacity:1;" stroke-width="50" stroke-linecap="round"/>
</svg>
